# File created by Blade
# Date/Time:  Mon Nov 15 14:44:42 2010
#---------------------------------------------------------
:version 1.10
:name HOM
:units
  mass 1.0
  length 1.000000
  angle deg
:documentation
     Acclaim Skeleton File
:root
   axis xyz
   order TX TY TZ RX RY RZ
   position 0.000000 0.000000 0.000000
   orientation 0 0 0
:bonedata
   begin
      id 1
      name LeftUpLeg_dum
      direction 1.000000 0.000000 0.000000
      length 4.719518
      axis 0.0 0.0 0.0 xyz
   end
   begin
      id 2
      name RightUpLeg_dum
      direction -1.000000 0.000000 0.000000
      length 4.719518
      axis 0.0 0.0 0.0 xyz
   end
   begin
      id 3
      name Spine_dum
      direction 0.000000 1.000000 0.000000
      length 0.039370
      axis 0.0 0.0 0.0 xyz
   end
   begin
      id 4
      name LeftUpLeg
      direction 0.000000 -1.000000 0.000000
      length 19.141694
      axis 0.0 0.0 0.0 xyz
      dof rx ry rz
   end
   begin
      id 5
      name LeftLeg
      direction 0.000000 -1.000000 0.000000
      length 19.555040
      axis 0.0 0.0 0.0 xyz
      dof rx ry rz
   end
   begin
      id 6
      name LeftFoot
      direction 0.000000 -0.258819 0.965926
      length 6.929396
      axis 15.0 0.0 0.0 xyz
      dof rx ry rz
   end
   begin
      id 7
      name LeftToeBase
      direction 0.000000 0.000000 1.000000
      length 2.952750
      axis 0.0 0.0 0.0 xyz
      dof rx ry rz
   end
   begin
      id 8
      name RightUpLeg
      direction 0.000000 -1.000000 0.000000
      length 19.141694
      axis 0.0 0.0 0.0 xyz
      dof rx ry rz
   end
   begin
      id 9
      name RightLeg
      direction 0.000000 -1.000000 0.000000
      length 19.555040
      axis 0.0 0.0 0.0 xyz
      dof rx ry rz
   end
   begin
      id 10
      name RightFoot
      direction 0.000000 -0.258819 0.965926
      length 6.929396
      axis 15.0 0.0 0.0 xyz
      dof rx ry rz
   end
   begin
      id 11
      name RightToeBase
      direction 0.000000 0.000000 1.000000
      length 2.952750
      axis 0.0 0.0 0.0 xyz
      dof rx ry rz
   end
   begin
      id 12
      name Spine
      direction 0.000000 1.000000 0.000000
      length 11.965764
      axis 0.0 0.0 0.0 xyz
      dof rx ry rz
   end
   begin
      id 13
      name Spine1
      direction 0.000000 1.000000 0.000000
      length 0.000000
      axis 0.0 0.0 0.0 xyz
      dof rx ry rz
   end
   begin
      id 14
      name Spine1_dum1
      direction 0.000000 1.000000 0.000000
      length 9.788721
      axis 0.0 0.0 0.0 xyz
   end
   begin
      id 15
      name Spine1_dum2
      direction 0.000000 1.000000 0.000000
      length 9.788721
      axis 0.0 0.0 0.0 xyz
   end
   begin
      id 16
      name Spine1_dum3
      direction 0.000000 1.000000 0.000000
      length 9.788721
      axis 0.0 0.0 0.0 xyz
   end
   begin
      id 17
      name Neck
      direction 0.000000 1.000000 0.000000
      length 7.029632
      axis 0.0 0.0 0.0 xyz
      dof rx ry rz
   end
   begin
      id 18
      name Head
      direction 0.000000 1.000000 0.000000
      length 4.527550
      axis 0.0 0.0 0.0 xyz
      dof rx ry rz
   end
   begin
      id 19
      name LeftShoulder
      direction 1.000000 -0.000004 0.000000
      length 9.320257
      axis 0.0 0.0 -90.0 xyz
      dof rx ry rz
   end
   begin
      id 20
      name LeftArm
      direction 1.000000 -0.000004 0.000000
      length 12.801352
      axis 0.0 0.0 -90.0 xyz
      dof rx ry rz
   end
   begin
      id 21
      name LeftForeArm
      direction 1.000000 -0.000004 0.000000
      length 11.278127
      axis 0.0 0.0 -90.0 xyz
      dof rx ry rz
   end
   begin
      id 22
      name LeftHand
      direction 0.000000 0.000000 0.000000
      length 0.000000
      axis 0.0 0.0 -90.0 xyz
      dof rx ry rz
   end
   begin
      id 23
      name LeftHand_dum1
      direction 0.000000 0.000000 0.000000
      length 0.000000
      axis 0.0 0.0 -90.0 xyz
   end
   begin
      id 24
      name LeftHand_dum2
      direction 1.000000 -0.000004 0.000000
      length 3.937000
      axis 0.0 0.0 -90.0 xyz
   end
   begin
      id 25
      name LeftHandThumb
      direction 0.000000 0.000000 1.000000
      length 3.937000
      axis 0.0 0.0 -90.0 xyz
      dof rx ry rz
   end
   begin
      id 26
      name RightShoulder
      direction -1.000000 -0.000004 0.000000
      length 9.320257
      axis 0.0 0.0 90.0 xyz
      dof rx ry rz
   end
   begin
      id 27
      name RightArm
      direction -1.000000 -0.000004 0.000000
      length 12.801352
      axis 0.0 0.0 90.0 xyz
      dof rx ry rz
   end
   begin
      id 28
      name RightForeArm
      direction -1.000000 -0.000004 0.000000
      length 11.278127
      axis 0.0 0.0 90.0 xyz
      dof rx ry rz
   end
   begin
      id 29
      name RightHand
      direction 0.000000 0.000000 0.000000
      length 0.000000
      axis 0.0 0.0 90.0 xyz
      dof rx ry rz
   end
   begin
      id 30
      name RightHand_dum1
      direction 0.000000 0.000000 0.000000
      length 0.000000
      axis 0.0 0.0 90.0 xyz
   end
   begin
      id 31
      name RightHand_dum2
      direction -1.000000 -0.000004 0.000000
      length 5.393690
      axis 0.0 0.0 90.0 xyz
   end
   begin
      id 32
      name RightHandThumb
      direction 0.000000 0.000000 1.000000
      length 3.937000
      axis 0.0 0.0 90.0 xyz
      dof rx ry rz
   end
:hierarchy
   begin
      root LeftUpLeg_dum RightUpLeg_dum Spine_dum
      LeftUpLeg_dum LeftUpLeg
      RightUpLeg_dum RightUpLeg
      Spine_dum Spine
      LeftUpLeg LeftLeg
      LeftLeg LeftFoot
      LeftFoot LeftToeBase
      RightUpLeg RightLeg
      RightLeg RightFoot
      RightFoot RightToeBase
      Spine Spine1
      Spine1 Spine1_dum1 Spine1_dum2 Spine1_dum3
      Spine1_dum1 Neck
      Spine1_dum2 LeftShoulder
      Spine1_dum3 RightShoulder
      Neck Head
      LeftShoulder LeftArm
      LeftArm LeftForeArm
      LeftForeArm LeftHand
      LeftHand LeftHand_dum1 LeftHand_dum2
      LeftHand_dum1 LeftHandThumb
      RightShoulder RightArm
      RightArm RightForeArm
      RightForeArm RightHand
      RightHand RightHand_dum1 RightHand_dum2
      RightHand_dum1 RightHandThumb
   end

# File created by Blade
# Date/Time:  Mon Nov 15 14:56:25 2010
# Frame Rate: 200.000 fps
#------------------------------------------------------
:FULLY-SPECIFIED
:DEGREES
352
root  5.540575 38.205622 -42.124030 -4.316459 -8.392191 -6.401229
LeftUpLeg  -25.871800 9.334307 2.493401
LeftLeg  5.565658 -0.000000 0.000000
LeftFoot  5.290096 8.649783 7.267238
LeftToeBase  -21.629151 0.000000 -0.000000
RightUpLeg  28.027340 -2.053406 7.598214
RightLeg  0.004076 -0.000000 0.000000
RightFoot  -7.112124 -6.181811 -8.565883
RightToeBase  -39.006695 0.000000 -0.000000
Spine  12.257825 1.316149 5.032289
Spine1  2.638473 6.255046 -1.643548
Neck  13.098427 -2.725011 -2.753818
Head  -24.174371 -5.827555 2.809023
LeftShoulder  -15.833717 15.680539 -2.818395
LeftArm  6.443461 2.749012 -73.869360
LeftForeArm  13.070309 -0.000000 0.000000
LeftHand  -12.663072 13.032491 -10.370889
LeftHandThumb  0.000000 -0.000000 0.000000
RightShoulder  -6.538007 -9.844902 -1.551220
RightArm  27.347564 -19.616456 66.920562
RightForeArm  41.686515 -0.000000 0.000000
RightHand  -1.686266 0.170975 15.906761
RightHandThumb  0.000000 -0.000000 0.000000
353
root  5.548319 38.141156 -41.760084 -4.169570 -8.743896 -6.451215
LeftUpLeg  -26.106959 9.065953 2.700350
LeftLeg  5.048790 -0.000000 0.000000
LeftFoot  5.331604 9.405988 7.857978
LeftToeBase  -21.603139 0.000000 -0.000000
RightUpLeg  28.250526 -2.181416 7.354850
RightLeg  0.280570 -0.000000 0.000000
RightFoot  -7.112740 -5.875364 -8.686963
RightToeBase  -40.172529 0.000000 -0.000000
Spine  12.201383 1.428961 5.037564
Spine1  2.590087 6.358802 -1.691662
Neck  13.137731 -2.587367 -2.815024
Head  -24.269653 -5.817159 2.856947
LeftShoulder  -16.076838 15.794725 -2.990240
LeftArm  6.413351 2.266962 -73.895267
LeftForeArm  12.785725 -0.000000 0.000000
LeftHand  -12.765765 13.221979 -10.174223
LeftHandThumb  0.000000 -0.000000 0.000000
RightShoulder  -6.479627 -9.877997 -1.562535
RightArm  27.529979 -19.642828 66.742054
RightForeArm  42.188241 -0.000000 0.000000
RightHand  -1.666085 0.093173 15.744816
RightHandThumb  0.000000 -0.000000 0.000000
354
root  5.557927 38.078919 -41.392059 -4.034584 -9.087600 -6.415699
LeftUpLeg  -26.366689 9.044782 2.710233
LeftLeg  4.828127 -0.000000 0.000000
LeftFoot  5.090512 10.190391 7.750485
LeftToeBase  -21.618974 0.000000 -0.000000
RightUpLeg  28.431820 -2.296886 7.018764
RightLeg  0.631245 -0.000000 0.000000
RightFoot  -7.045634 -5.623649 -8.861045
RightToeBase  -41.846452 0.000000 -0.000000
Spine  12.081278 1.561993 4.995318
Spine1  2.643395 6.458910 -1.790118
Neck  13.108778 -2.618984 -2.789638
Head  -24.308080 -5.701888 2.743407
LeftShoulder  -16.196735 15.706700 -3.068729
LeftArm  6.182538 1.862318 -73.940638
LeftForeArm  12.526229 -0.000000 0.000000
LeftHand  -12.842017 13.395331 -9.943986
LeftHandThumb  0.000000 -0.000000 0.000000
RightShoulder  -6.479899 -9.993054 -1.531127
RightArm  27.833647 -19.625510 66.552922
RightForeArm  42.621226 -0.000000 0.000000
RightHand  -1.676629 -0.099280 15.541132
RightHandThumb  0.000000 -0.000000 0.000000
355
root  5.568987 38.020833 -41.020513 -3.899682 -9.431385 -6.380969
LeftUpLeg  -26.626407 9.023656 2.720212
LeftLeg  4.607464 -0.000000 0.000000
LeftFoot  4.847304 10.974339 7.639355
LeftToeBase  -21.634810 0.000000 -0.000000
RightUpLeg  28.613802 -2.411292 6.682286
RightLeg  0.981921 -0.000000 0.000000
RightFoot  -6.979325 -5.371733 -9.034758
RightToeBase  -43.520376 0.000000 -0.000000
Spine  11.961066 1.694935 4.952790
Spine1  2.696540 6.559108 -1.888500
Neck  13.079810 -2.650588 -2.764235
Head  -24.346729 -5.586693 2.629811
LeftShoulder  -16.316455 15.618518 -3.146992
LeftArm  5.952093 1.457494 -73.984368
LeftForeArm  12.266734 -0.000000 0.000000
LeftHand  -12.917607 13.568979 -9.713820
LeftHandThumb  0.000000 -0.000000 0.000000
RightShoulder  -6.480236 -10.108111 -1.499708
RightArm  28.137220 -19.607249 66.363912
RightForeArm  43.054212 -0.000000 0.000000
RightHand  -1.686488 -0.291769 15.337481
RightHandThumb  0.000000 -0.000000 0.000000
356
root  5.581107 37.969564 -40.648797 -3.838858 -9.805718 -6.349210
LeftUpLeg  -26.800410 9.092242 2.729834
LeftLeg  4.671552 -0.000000 0.000000
LeftFoot  4.486796 11.711489 7.143436
LeftToeBase  -21.871297 0.000000 -0.000000
RightUpLeg  28.779981 -2.384767 6.394735
RightLeg  1.482556 -0.000000 0.000000
RightFoot  -6.817747 -5.218569 -9.169134
RightToeBase  -45.396979 0.000000 -0.000000
Spine  11.965363 1.836036 4.896550
Spine1  2.641673 6.663190 -1.976240
Neck  13.214139 -2.409817 -2.871831
Head  -24.606140 -5.654974 2.924241
LeftShoulder  -16.495887 15.670619 -3.300454
LeftArm  5.879807 0.935659 -74.031615
LeftForeArm  11.981735 -0.000000 0.000000
LeftHand  -13.076570 13.819331 -9.477769
LeftHandThumb  0.000000 -0.000000 0.000000
RightShoulder  -6.441358 -10.119018 -1.449695
RightArm  28.175557 -19.595774 66.265068
RightForeArm  43.547434 -0.000000 0.000000
RightHand  -1.778083 -0.477578 15.106206
RightHandThumb  0.000000 -0.000000 0.000000
357
root  5.594269 37.922074 -40.269474 -3.778174 -10.180084 -6.317818
LeftUpLeg  -26.974434 9.160857 2.739247
LeftLeg  4.735640 -0.000000 0.000000
LeftFoot  4.118776 12.445533 6.641412
LeftToeBase  -22.107785 0.000000 -0.000000
RightUpLeg  28.946022 -2.357410 6.107267
RightLeg  1.983191 -0.000000 0.000000
RightFoot  -6.656569 -5.065028 -9.303043
RightToeBase  -47.273583 0.000000 -0.000000
Spine  11.969521 1.977140 4.840315
Spine1  2.586635 6.767189 -2.064098
Neck  13.347992 -2.168795 -2.978843
Head  -24.865932 -5.721926 3.219013
LeftShoulder  -16.675509 15.722257 -3.454124
LeftArm  5.807959 0.413766 -74.078199
LeftForeArm  11.696737 -0.000000 0.000000
LeftHand  -13.234642 14.070316 -9.242179
LeftHandThumb  0.000000 -0.000000 0.000000
RightShoulder  -6.402488 -10.129958 -1.399687
RightArm  28.213870 -19.584237 66.166239
RightForeArm  44.040656 -0.000000 0.000000
RightHand  -1.868929 -0.663755 14.875221
RightHandThumb  0.000000 -0.000000 0.000000
358
root  5.608456 37.875648 -39.874007 -3.803592 -10.546533 -6.110839
LeftUpLeg  -27.041002 9.379867 2.498764
LeftLeg  5.011844 -0.000000 0.000000
LeftFoot  3.815764 12.976834 6.274024
LeftToeBase  -22.163401 0.000000 -0.000000
RightUpLeg  29.204281 -2.352130 5.590919
RightLeg  2.443903 -0.000000 0.000000
RightFoot  -6.430016 -4.851563 -9.491104
RightToeBase  -48.998720 0.000000 -0.000000
Spine  11.926317 2.181556 4.686000
Spine1  2.613221 6.885590 -2.237957
Neck  13.422656 -2.281901 -2.916763
Head  -24.936532 -5.585388 3.158772
LeftShoulder  -16.680968 15.657147 -3.458370
LeftArm  5.586616 -0.099750 -74.152700
LeftForeArm  11.430855 -0.000000 0.000000
LeftHand  -13.436263 14.255245 -9.127954
LeftHandThumb  0.000000 -0.000000 0.000000
RightShoulder  -6.442868 -10.118249 -1.331289
RightArm  28.174220 -19.556760 66.175085
RightForeArm  44.441359 -0.000000 0.000000
RightHand  -1.828231 -0.774975 14.590935
RightHandThumb  0.000000 -0.000000 0.000000
359
root  5.623288 37.831978 -39.469043 -3.830388 -10.912890 -5.903443
LeftUpLeg  -27.108545 9.598600 2.257869
LeftLeg  5.288047 -0.000000 0.000000
LeftFoot  3.508594 13.506219 5.902951
LeftToeBase  -22.219017 0.000000 -0.000000
RightUpLeg  29.462481 -2.344525 5.074602
RightLeg  2.904614 -0.000000 0.000000
RightFoot  -6.204237 -4.637360 -9.678258
RightToeBase  -50.723857 0.000000 -0.000000
Spine  11.882556 2.385855 4.531508
Spine1  2.639451 7.004071 -2.411805
Neck  13.497203 -2.395088 -2.854826
Head  -25.007260 -5.448923 3.098376
LeftShoulder  -16.686420 15.592037 -3.462608
LeftArm  5.365929 -0.613548 -74.225222
LeftForeArm  11.164974 -0.000000 0.000000
LeftHand  -13.637669 14.440562 -9.014308
LeftHandThumb  0.000000 -0.000000 0.000000
RightShoulder  -6.483232 -10.106493 -1.262901
RightArm  28.134581 -19.529278 66.183909
RightForeArm  44.842063 -0.000000 0.000000
RightHand  -1.786980 -0.885992 14.306563
RightHandThumb  0.000000 -0.000000 0.000000
360
root  5.638979 37.792402 -39.058548 -3.949216 -11.228670 -5.728813
LeftUpLeg  -27.072773 9.820261 2.030373
LeftLeg  5.851176 -0.000000 0.000000
LeftFoot  3.292987 13.753994 5.899402
LeftToeBase  -22.268204 0.000000 -0.000000
RightUpLeg  29.777506 -2.267285 4.635331
RightLeg  3.420886 -0.000000 0.000000
RightFoot  -5.826650 -4.475599 -9.791897
RightToeBase  -52.756862 0.000000 -0.000000
Spine  11.892420 2.530205 4.404005
Spine1  2.695396 7.072567 -2.565448
Neck  13.596398 -2.362428 -2.856315
Head  -25.121733 -5.393602 3.187671
LeftShoulder  -16.753448 15.611853 -3.539179
LeftArm  5.278126 -0.969605 -74.263374
LeftForeArm  10.758470 -0.000000 0.000000
LeftHand  -13.355430 14.525929 -8.731821
LeftHandThumb  0.000000 -0.000000 0.000000
RightShoulder  -6.479340 -10.080476 -1.224877
RightArm  28.008233 -19.472627 66.304846
RightForeArm  45.213417 -0.000000 0.000000
RightHand  -1.788659 -1.082556 14.038940
RightHandThumb  0.000000 -0.000000 0.000000
361
root  5.653735 37.755268 -38.642028 -4.069158 -11.544092 -5.553321
LeftUpLeg  -27.037871 10.042060 1.802864
LeftLeg  6.414304 -0.000000 0.000000
LeftFoot  3.077135 14.001755 5.894888
LeftToeBase  -22.317390 0.000000 -0.000000
RightUpLeg  30.091912 -2.187635 4.196516
RightLeg  3.937159 -0.000000 0.000000
RightFoot  -5.449467 -4.313096 -9.904440
RightToeBase  -54.789868 0.000000 -0.000000
Spine  11.901965 2.674576 4.276512
Spine1  2.751164 7.141211 -2.719046
Neck  13.695589 -2.329765 -2.857747
Head  -25.236109 -5.338103 3.276847
LeftShoulder  -16.820510 15.631582 -3.615781
LeftArm  5.190549 -1.325720 -74.300984
LeftForeArm  10.351966 -0.000000 0.000000
LeftHand  -13.072651 14.609946 -8.448796
LeftHandThumb  0.000000 -0.000000 0.000000
RightShoulder  -6.475431 -10.054462 -1.186854
RightArm  27.882056 -19.415726 66.425608
RightForeArm  45.584771 -0.000000 0.000000
RightHand  -1.789420 -1.279126 13.771303
RightHandThumb  0.000000 -0.000000 0.000000
